<svg height="223.4" viewBox="0 0 690 223.4" width="690" xmlns="http://www.w3.org/2000/svg"><g fill="#ed1c24"><path d="m0 163.7v-64.6h16.3v50.6h59.3v14zm96.3-51.9h31.3c4.2 0 7.8 1.3 10.8 3.9s4.5 5.6 4.5 9.1v26c0 3.5-1.5 6.6-4.5 9.1-3 2.6-6.6 3.9-10.8 3.9h-31.3c-4.1 0-7.7-1.3-10.7-3.9s-4.5-5.6-4.5-9.1v-26c0-3.5 1.5-6.6 4.5-9.1 3-2.7 6.6-3.9 10.7-3.9zm.9 13.7v24.5h29.6v-24.6h-29.6zm93.6 0h-22.6v24.5h22.6v13.7h-23.3c-4.3 0-7.9-1.3-10.9-3.9s-4.5-5.6-4.5-9.1v-54.4h16.1v15.4h22.6zm48.3 0h-22.6v24.5h22.6v13.7h-23.3c-4.3 0-7.9-1.3-10.9-3.9s-4.5-5.6-4.5-9.1v-54.4h16.1v15.4h22.6zm55-13.7c4.2 0 7.8 1.3 10.8 3.9s4.5 5.6 4.5 9.1v19.9h-45.6v5.4h45.6v13.7h-46.5c-4.1 0-7.7-1.3-10.7-3.9s-4.5-5.6-4.5-9.1v-26c0-3.5 1.5-6.6 4.5-9.1 3-2.6 6.6-3.9 10.7-3.9zm-30.4 20.8h29.6v-7.2h-29.6zm71.2-20.8h33.6v13.7h-32.8v38.3h-16.1v-39c0-3.5 1.5-6.6 4.5-9.1 3-2.7 6.7-3.9 10.8-3.9zm100.7 57.6c0 3.6-1.5 6.6-4.5 9.2-3 2.5-6.6 3.8-10.8 3.8h-36.9v-13.8h36.1v-4.8h-30.4c-4.2 0-7.8-1.3-10.8-3.9s-4.5-5.6-4.5-9.1v-38.8h16.1v38h29.7v-38.1h16.1v57.5zm143.9-46.9c3.1 0 5.8 1 8.1 2.9s3.4 4.2 3.4 6.9v29.5h-12.1v-28.9h-22.4v28.9h-12.1v-52.2h12.1v12.9zm51.8 0h12.2v3.5l-17.1 16.1 17.1 16.1v3.5h-12.2l-15.6-14.4h-6.2v14.4h-12.1v-52.2h12.1v27.3h6.2z"/><path d="m689.3 106c-.6-5.2-1.5-10.4-2.9-15.6-1.4-5.1-2.9-10.3-5-15.2-2.1-5-4.3-10-7.1-14.7s-5.7-9.4-9.2-13.8l-1.3-1.7-1.3-1.6c-.9-1.1-1.8-2.2-2.7-3.2-1.9-2.1-3.8-4.2-5.9-6.1-2-2-4.2-3.9-6.3-5.8-2.2-1.8-4.5-3.7-6.8-5.4-2.3-1.8-4.8-3.3-7.2-5-2.5-1.5-5-3-7.7-4.4-5.2-2.8-10.8-5.2-16.5-7.1-5.7-2-11.6-3.6-17.7-4.7-1.5-.3-3-.5-4.6-.7-1.5-.2-3.1-.4-4.6-.6l-4.6-.4c-1.6-.1-3.1-.1-4.7-.2s-3.1 0-4.7 0-3.1.1-4.7.2-3.2.2-4.7.3c-1.6.2-3.1.4-4.7.6-6.3.9-12.6 2.2-18.7 4.2s-12.2 4.3-18.1 7.2c-5.8 3-11.5 6.3-16.8 10.2l-3.9 3-1.9 1.5-1.9 1.6c-1.2 1.1-2.5 2.1-3.7 3.3l-3.6 3.4c-9.4 9.3-17.2 20.4-22.9 32.5-5.8 12.1-9.2 25.2-10.3 38.4-.2 1.6-.2 3.3-.3 5 0 1.7-.1 3.3-.1 4.9.1 3.3.2 6.6.6 9.8.2 1.6.4 3.3.6 4.9l.9 4.8c.2.8.3 1.6.5 2.4l.7 2.4c.4 1.6.9 3.1 1.4 4.7 3.5 10.3 12.3 18.6 23.7 20.8 17 3.3 33.5-7.8 36.8-24.8l1.1-5.7c1.4-6.9 2.4-13.2 4.1-19.3 1.7-6 3.7-11.8 6.3-17.3s5.6-10.8 9.3-15.8c1.8-2.6 3.9-5 6-7.4 2.2-2.3 4.5-4.5 7-6.7 9.9-8.4 22.8-14.6 37.5-17 3.7-.6 7.4-.9 11.2-1s7.7.2 11.6.8c2 .2 3.9.7 5.8 1.1 1.9.5 3.9.9 5.8 1.6 2 .5 3.8 1.3 5.7 2.1s3.8 1.6 5.6 2.6c14.8 7.5 27.7 20.5 35 36.8 7.3 16.2 9.4 35.2 5.7 53.4-.9 4.5-2.1 9.1-3.8 13.4-1.6 4.4-3.5 8.7-5.9 12.8-2.3 4.1-4.9 8.1-7.8 11.8l-1.1 1.4-1.2 1.4c-.8.9-1.5 1.8-2.3 2.7l-2.5 2.6-2.6 2.5c-13.8 13.2-32.1 21.9-51.4 24.3-.3 0-.5.3-.4.6 0 .3.3.5.6.4 9.7-1.2 19.2-3.7 28.3-7.4 4.5-1.9 8.9-4.1 13.2-6.6 4.2-2.5 8.3-5.3 12.2-8.4 7.7-6.3 14.6-13.5 20.3-21.8s10.3-17.4 13.5-27.1c1.6-4.8 2.8-9.8 3.7-14.9.5-2.5.8-5.1 1.1-7.7.2-2.6.4-5.2.5-7.8.6-5 .5-10.3-.2-15.5zm-195 46.7c-5 5.1-13.3 5.2-18.4.2s-5.2-13.3-.2-18.4 13.3-5.2 18.4-.2c5.2 5.1 5.2 13.3.2 18.4z"/></g></svg>